HIERARCHY
ROOT Hips
{
	OFFSET 0.00000 0.00000 0.00000
	CHANNELS 6 Xposition Yposition Zposition Zrotation Yrotation Xrotation 
	JOINT LHipJoint
	{
		OFFSET 0 0 0
		CHANNELS 3 Zrotation Yrotation Xrotation
		JOINT LeftHip
		{
			OFFSET 1.61328 -1.70571 0.84375
			CHANNELS 3 Zrotation Yrotation Xrotation
			JOINT LeftKnee
			{
				OFFSET 2.32400 -6.38513 0.00000
				CHANNELS 3 Zrotation Yrotation Xrotation
				JOINT LeftAnkle
				{
					OFFSET 2.58843 -7.11166 0.00000
					CHANNELS 3 Zrotation Yrotation Xrotation
					JOINT LeftToe
					{
						OFFSET 0.17200 -0.47257 2.47970
						CHANNELS 3 Zrotation Yrotation Xrotation
						End Site
						{
							OFFSET 0.00000 -0.00000 1.26912
						}
					}
				}
			}
		}
	}
	JOINT RHipJoint
	{
		OFFSET 0 0 0
		CHANNELS 3 Zrotation Yrotation Xrotation
		JOINT RightHip
		{
			OFFSET -1.49930 -1.70570 0.84375
			CHANNELS 3 Zrotation Yrotation Xrotation
			JOINT RightKnee
			{
				OFFSET -2.30458 -6.33178 0.00000
				CHANNELS 3 Zrotation Yrotation Xrotation
				JOINT RightAnkle
				{
					OFFSET -2.62261 -7.20556 0.00000
					CHANNELS 3 Zrotation Yrotation Xrotation
					JOINT RightToe
					{
						OFFSET -0.18709 -0.51403 2.51340
						CHANNELS 3 Zrotation Yrotation Xrotation
						End Site
						{
							OFFSET -0.00000 -0.00000 1.28858
						}
					}
				}
			}
		}
	}
	JOINT lowerback
	{
		OFFSET 0 0 0
		CHANNELS 3 Zrotation Yrotation Xrotation
		JOINT Chest
		{
			OFFSET -0.03798 2.19274 -0.19881
			CHANNELS 3 Zrotation Yrotation Xrotation
			JOINT Chest2
			{
				OFFSET -0.00024 2.19460 0.05248
				CHANNELS 3 Zrotation Yrotation Xrotation
				JOINT lowerneck
				{
					OFFSET 0 0 0
					CHANNELS 3 Zrotation Yrotation Xrotation
					JOINT Neck
					{
						OFFSET -0.00746 1.82323 0.17286
						CHANNELS 3 Zrotation Yrotation Xrotation
						JOINT Head
						{
							OFFSET 0.11826 1.82121 -0.27841
							CHANNELS 3 Zrotation Yrotation Xrotation
							End Site
							{
								OFFSET 0.03496 1.85543 -0.11495
							}
						}
					}
				}
				JOINT LeftCollar
				{
					OFFSET 0 0 0
					CHANNELS 3 Zrotation Yrotation Xrotation
					JOINT LeftShoulder
					{
						OFFSET 3.71926 0.78840 0.25473
CHANNELS 3 Zrotation Xrotation Yrotation
						JOINT LeftElbow
						{
OFFSET 0 -5.375870 0.000000
CHANNELS 3 Zrotation Xrotation Yrotation
							JOINT LeftWrist
							{
OFFSET 0 -3.359770 0.000000
CHANNELS 3 Zrotation Xrotation Yrotation
								JOINT lhand
								{
									OFFSET 0 0 0
CHANNELS 3 Zrotation Xrotation Yrotation
									JOINT LFingers
									{
OFFSET 0 -0.561860 0.000000
CHANNELS 3 Zrotation Xrotation Yrotation
										End Site
										{
OFFSET 0 -0.452990 0.000000
										}
									}
								}
								JOINT LThumb
								{
OFFSET 0 0.000000 0.000000
CHANNELS 3 Zrotation Xrotation Yrotation
									End Site
									{
OFFSET 0 -0.459900 0.459900
									}
								}
							}
						}
					}
				}
				JOINT RightCollar
				{
					OFFSET 0 0 0
					CHANNELS 3 Zrotation Yrotation Xrotation
					JOINT RightShoulder
					{
						OFFSET -3.65136 0.56074 0.01624
CHANNELS 3 Zrotation Xrotation Yrotation
						JOINT RightElbow
						{
OFFSET 0 -5.228190 0.000000
CHANNELS 3 Zrotation Xrotation Yrotation
							JOINT RightWrist
							{
OFFSET 0 -3.407640 0.000000
CHANNELS 3 Zrotation Xrotation Yrotation
								JOINT rhand
								{
									OFFSET 0 0 0
CHANNELS 3 Zrotation Xrotation Yrotation
									JOINT RFingers
									{
OFFSET 0 -0.583250 0.000000
CHANNELS 3 Zrotation Xrotation Yrotation
										End Site
										{
OFFSET 0 -0.470240 0.000000
										}
									}
								}
								JOINT RThumb
								{
OFFSET 0 0.000000 0.000000
CHANNELS 3 Zrotation Xrotation Yrotation
									End Site
									{
OFFSET 0 -0.477420 0.477420
									}
								}
							}
						}
					}
				}
			}
		}
	}
}
MOTION
Frames: 6
Frame Time: 0.008333333333333333
-30.304875 15.978287 -4.446725 174.822135 57.775451 -533.059599 0.000000 0.000000 0.000000 -28.940210 -8.924237 -23.867079 5.040661 13.429415 40.998112 2.031681 1.480939 -27.518885 0.580007 -4.876660 -13.557126 0.000000 0.000000 0.000000 10.480242 11.715858 -32.571226 -14.287498 -19.198911 73.080568 -1.375868 2.371340 -21.521680 -0.163466 2.604205 -7.178755 -1.708653 -2.565495 11.757120 4.341373 -3.110546 4.627599 5.895349 -1.462092 -1.391856 3.268593 -2.124331 -10.513591 5.901547 -2.943764 -3.403391 1.184100 -1.289578 0.735092 0.000000 0.000000 0.000000 19.919884 11.041812 -73.833943 37.546690 -46.544123 16.636831 33.717292 -8.694531 -20.996745 0.000000 0.000000 0.000000 -7.125000 0.000000 0.000000 5.492147 54.665461 -1.306969 0.000000 0.000000 0.000000 -19.065765 -5.914587 48.660931 -36.121962 -45.589046 -15.612157 -21.998602 -12.574002 -4.308919 0.000000 0.000000 0.000000 7.125000 0.000000 0.000000 3.498295 25.332883 1.667904
-29.827098 15.915068 -4.668791 173.116215 55.989059 -534.337778 0.000000 0.000000 0.000000 -30.020948 -8.861206 -21.137709 4.823642 13.182169 40.054744 2.165358 0.769426 -28.135483 0.551822 -4.758560 -13.221222 0.000000 0.000000 0.000000 7.148207 14.878008 -37.906285 -13.832971 -19.062086 71.693307 -1.714127 2.929311 -23.993951 -0.179344 2.727977 -7.522214 -1.535201 -3.328569 11.881131 4.430487 -4.077789 4.657011 6.011279 -1.938758 -1.322004 3.653482 -1.804257 -11.096901 5.538179 -2.532442 -3.875871 1.018536 -1.087255 0.662021 0.000000 0.000000 0.000000 14.263813 4.408504 -71.803493 34.492838 -44.442746 14.458292 33.667199 -8.546138 -20.931413 0.000000 0.000000 0.000000 -7.125000 0.000000 0.000000 5.444907 54.579960 -1.284379 0.000000 0.000000 0.000000 -17.373872 -1.862101 42.918705 -31.739525 -42.331280 -12.567647 -22.894366 -12.836651 -4.358879 0.000000 0.000000 0.000000 7.125000 0.000000 0.000000 2.823706 25.249220 1.350999
-29.326504 15.852407 -4.896935 171.151247 54.641661 -536.042613 0.000000 0.000000 0.000000 -31.314236 -8.207016 -17.837265 4.458408 12.746372 38.426651 2.301191 0.138939 -28.789803 0.511991 -4.586414 -12.732487 0.000000 0.000000 0.000000 3.640509 17.187385 -42.641064 -12.903288 -18.746494 68.824392 -1.919355 3.280692 -25.374638 -0.172909 2.678870 -7.385854 -1.848294 -3.918249 11.984561 4.420335 -4.873374 4.840528 6.268354 -2.341005 -1.065118 4.066218 -1.448665 -11.826746 5.251138 -2.080652 -4.366069 0.875117 -0.858596 0.611002 0.000000 0.000000 0.000000 9.185509 -2.546298 -71.112903 31.800997 -42.386586 12.606899 32.639184 -8.092887 -21.038496 0.000000 0.000000 0.000000 -7.125000 0.000000 0.000000 4.303018 54.477790 -1.003550 0.000000 0.000000 0.000000 -15.539785 1.740129 38.424109 -28.468528 -39.542179 -10.421256 -23.371572 -16.647708 -3.995953 0.000000 0.000000 0.000000 7.125000 0.000000 0.000000 2.464040 25.627237 1.157008
-28.809664 15.774622 -5.132681 169.078674 53.802906 -537.963975 0.000000 0.000000 0.000000 -32.566400 -6.599843 -14.273181 3.967510 12.115618 36.144202 2.423585 -0.680342 -29.298522 0.531073 -4.669871 -12.969290 0.000000 0.000000 0.000000 0.524916 18.370703 -46.934872 -11.657915 -18.240051 64.897777 -1.949067 3.521779 -25.531652 -0.175792 2.700845 -7.446854 -2.505491 -4.284701 12.021436 4.337454 -5.419831 5.066424 6.603142 -2.630238 -0.722255 4.370585 -1.167499 -12.619638 5.147358 -1.724098 -4.791253 0.804977 -0.668946 0.598066 0.000000 0.000000 0.000000 4.618781 -9.537013 -71.828103 29.607901 -40.552849 11.154606 30.914296 -7.912565 -21.003423 0.000000 0.000000 0.000000 -7.125000 0.000000 0.000000 2.439993 54.072532 -0.545273 0.000000 0.000000 0.000000 -13.593416 5.103355 35.301199 -26.306626 -37.507653 -9.074583 -23.846674 -22.153410 -3.321802 0.000000 0.000000 0.000000 7.125000 0.000000 0.000000 2.103786 26.347776 0.952287
-28.278572 15.683349 -5.384043 166.881776 53.298159 -540.169992 0.000000 0.000000 0.000000 -33.706529 -4.056567 -10.375056 3.370115 11.271211 33.200201 2.491950 -1.870452 -29.391117 0.564814 -4.813376 -13.377051 0.000000 0.000000 0.000000 -1.827803 18.436934 -50.676665 -10.400789 -17.629056 60.819647 -1.718981 3.742233 -23.875019 -0.148090 2.479594 -6.833164 -3.342760 -4.512114 12.076227 4.293322 -5.802424 5.255920 7.063572 -2.844074 -0.413935 4.389090 -0.973704 -13.390623 4.989092 -1.459627 -5.155464 0.762621 -0.524515 0.605154 0.000000 0.000000 0.000000 0.448651 -16.260623 -73.944843 28.171084 -39.273240 10.231812 29.690038 -8.389303 -20.808986 0.000000 0.000000 0.000000 -7.125000 0.000000 0.000000 1.169075 53.604307 -0.247375 0.000000 0.000000 0.000000 -11.669642 7.943992 32.711825 -24.435065 -35.620787 -7.958625 -24.568353 -24.002030 -3.510802 0.000000 0.000000 0.000000 7.125000 0.000000 0.000000 1.556019 26.119923 0.712294
-27.733150 15.580582 -5.660126 164.781055 52.901743 -542.411806 0.000000 0.000000 0.000000 -34.584467 -0.898065 -6.119087 2.706523 10.200731 29.632335 2.464370 -3.255484 -28.905215 0.602623 -4.968914 -13.819932 0.000000 0.000000 0.000000 -3.075263 17.370131 -53.971992 -9.682426 -17.227202 58.421414 -1.197311 2.626667 -19.965128 -0.033804 1.135564 -3.122433 -4.027005 -4.810433 12.002772 4.391855 -6.261388 5.322308 7.587718 -3.097835 -0.141758 4.187518 -0.687662 -14.087138 4.435079 -1.077493 -5.253265 0.638771 -0.329066 0.685239 0.000000 0.000000 0.000000 -2.980377 -22.528980 -77.436605 27.906690 -39.030107 10.064879 29.826609 -9.198880 -20.543592 0.000000 0.000000 0.000000 -7.125000 0.000000 0.000000 1.365048 53.337650 -0.279867 0.000000 0.000000 0.000000 -10.170910 9.514376 30.630712 -22.152835 -33.145087 -6.671072 -25.250373 -21.908400 -4.422714 0.000000 0.000000 0.000000 7.125000 0.000000 0.000000 1.052334 25.091697 0.506312
